<?xml version="1.0" encoding="UTF-8"?>
<svg id="Layer_1" data-name="Layer 1" xmlns="http://www.w3.org/2000/svg" xmlns:xlink="http://www.w3.org/1999/xlink" viewBox="0 0 486.72 357.16">
  <defs>
    <style>
      .cls-1 {
        fill: url(#linear-gradient);
        filter: url(#drop-shadow-1);
      }

      .cls-1, .cls-2, .cls-3, .cls-4 {
        stroke-width: 0px;
      }

      .cls-2 {
        fill: url(#linear-gradient-3);
        filter: url(#drop-shadow-3);
      }

      .cls-3 {
        fill: url(#linear-gradient-2);
        filter: url(#drop-shadow-2);
      }

      .cls-4 {
        fill: #092d74;
      }
    </style>
    <linearGradient id="linear-gradient" x1="91.13" y1="290.46" x2="91.13" y2="46.43" gradientUnits="userSpaceOnUse">
      <stop offset="0" stop-color="#f16522"/>
      <stop offset=".82" stop-color="#ffdd15"/>
      <stop offset=".89" stop-color="#fec32d"/>
      <stop offset=".95" stop-color="#feb33c"/>
      <stop offset="1" stop-color="#feae42"/>
    </linearGradient>
    <filter id="drop-shadow-1" filterUnits="userSpaceOnUse">
      <feOffset dx="0" dy="0"/>
      <feGaussianBlur result="blur" stdDeviation="14"/>
      <feFlood flood-color="#666" flood-opacity=".75"/>
      <feComposite in2="blur" operator="in"/>
      <feComposite in="SourceGraphic"/>
    </filter>
    <linearGradient id="linear-gradient-2" x1="301" y1="166.33" x2="120.83" y2="166.33" xlink:href="#linear-gradient"/>
    <filter id="drop-shadow-2" filterUnits="userSpaceOnUse">
      <feOffset dx="0" dy="0"/>
      <feGaussianBlur result="blur-2" stdDeviation="14"/>
      <feFlood flood-color="#666" flood-opacity=".75"/>
      <feComposite in2="blur-2" operator="in"/>
      <feComposite in="SourceGraphic"/>
    </filter>
    <linearGradient id="linear-gradient-3" x1="268.62" y1="251.5" x2="433.96" y2="86.16" gradientUnits="userSpaceOnUse">
      <stop offset="0" stop-color="#f16522"/>
      <stop offset=".61" stop-color="#ffdd15"/>
      <stop offset=".63" stop-color="#fed31e"/>
      <stop offset=".67" stop-color="#fec22e"/>
      <stop offset=".72" stop-color="#feb639"/>
      <stop offset=".8" stop-color="#feaf40"/>
      <stop offset="1" stop-color="#feae42"/>
    </linearGradient>
    <filter id="drop-shadow-3" filterUnits="userSpaceOnUse">
      <feOffset dx="0" dy="0"/>
      <feGaussianBlur result="blur-3" stdDeviation="14"/>
      <feFlood flood-color="#666" flood-opacity=".75"/>
      <feComposite in2="blur-3" operator="in"/>
      <feComposite in="SourceGraphic"/>
    </filter>
  </defs>
  <g>
    <path class="cls-1" d="M86.25,290.46V108.16c-11.29,5.24-31.91,9.54-44.07,10.59v-39.6c23.11-4.25,46.5-17.4,60.46-32.72h37.46v244.03h-53.84Z"/>
    <path class="cls-3" d="M121.96,290.46v-3.4c0-42.45,19.09-76.98,71.87-115.43,34.41-25.15,44.83-33.85,44.83-55.14s-10.25-33.01-30.78-33.01c-23.89,0-32.5,14.63-35.86,35.85h-51.19c3.51-42.06,31.04-77.12,87.05-77.12,62.65,0,84.1,37.31,84.1,73.83s-15.28,52.68-60.16,84.18c-30.07,21.12-42.15,35-46.29,45.99h115.48l-6.6,44.25H121.96Z"/>
    <path class="cls-2" d="M444.61,167.03c0,67.04-21.3,127.88-93.69,127.88s-93.64-58.82-93.64-126.35,24.55-126.35,94.76-126.35,92.58,55.6,92.58,124.82ZM311.95,167.94c0,44.82,5.11,84.71,39.62,84.71s38.08-37.3,38.08-85.3-5.72-82.9-37.58-82.9-40.13,30.7-40.13,83.49Z"/>
  </g>
  <g>
    <polygon class="cls-4" points="336.74 142.85 335.15 144.73 340.97 144.73 340.97 144.73 336.74 142.85"/>
    <polygon class="cls-4" points="334.81 153.66 334 152.53 334 151.55 334.49 150.17 334.73 148.95 335.06 147.33 334.81 145.87 334.81 145.14 328.66 152.44 335 153.89 334.81 153.66"/>
    <polygon class="cls-4" points="358.91 184.19 357.84 183.3 356.78 182.49 356.05 182.24 355.8 182.41 355.31 182.32 355.56 181.35 355.23 181.02 354.58 180.94 353.6 180.94 352.7 180.38 351.96 179.65 351.76 179.57 335.92 185.87 343.54 194.96 359.11 184.51 358.91 184.19"/>
    <polygon class="cls-4" points="347.8 178.67 347.47 178.02 347.47 177.13 347.64 176.48 347.23 176.07 346.57 175.83 346.49 174.86 346 174.37 345.1 173.56 344.53 172.91 343.8 171.85 342.82 170.96 342.77 170.57 342.77 170.57 342.79 170.71 324.86 172.66 333.83 183.37 348.01 178.79 347.8 178.67"/>
    <polygon class="cls-4" points="368.79 186.55 359.97 187.44 359.97 185.9 359.89 185.77 345.18 196.93 352.75 205.97 368.83 186.55 368.79 186.55"/>
    <polygon class="cls-4" points="342.33 168.12 341.51 167.47 341.02 166.57 341.02 165.68 340.78 165.35 340.78 164.38 341.18 164.3 341.84 165.19 341.92 164.38 341.67 163.24 340.78 162.76 340.37 163.16 340.12 163.81 339.22 163.57 338.9 162.68 338.9 161.94 338.33 161.62 337.67 160.73 337.1 159.75 336.37 158.86 336.2 157.8 336.14 157.41 325.81 155.83 318.27 164.79 322.18 169.46 342.97 168.48 342.97 168.36 342.33 168.12"/>
    <path class="cls-4" d="M377.19,163.68h0s-26.62-4.07-26.62-4.07l8.89,8.09,17.7-.83c-.05-.49-.07-.98-.07-1.49,0-.58.04-1.14.1-1.7Z"/>
    <path class="cls-4" d="M349.92,148.71v8.59l27.26,6.24c0-.09.02-.17.06-.25.1-.76.25-1.51.46-2.23l.05.02h0l-27.83-12.38Z"/>
    <path class="cls-4" d="M379.9,156.34c-9.93-12.05-26.97-32.73-26.97-32.73l-4.63,5.5,30.57,29.08h0c.33-.61.71-1.19,1.12-1.73l-.1-.13Z"/>
    <path class="cls-4" d="M346.3,131.49l-7.01,8.33,8.91,4.91h1.72v.95l27.8,15.31c.28-.94.64-1.83,1.09-2.66l-32.51-26.83Z"/>
    <path class="cls-4" d="M377.21,167.23c-.01-.06-.02-.13-.03-.2,0-.02,0-.05,0-.07h0s-16.55,1.8-16.55,1.8h0l4.82,4.39,12.13-3.92s0,.04.01.06l-11.4,4.53,3,2.73.34.95,8.85-5.94s.04.08.06.13l-8.64,6.56.46.91.57.32.16.65-.41.4-.49.57-.41.41v.73l-.16.89-.74.57.08.81.24.57.41.24.09.28,9.91-11.96c-1.22-1.82-2.04-4.01-2.32-6.41Z"/>
    <path class="cls-4" d="M377.21,167.23c0-.06-.02-.13-.03-.2,0,.07.01.13.03.2Z"/>
    <path class="cls-4" d="M377.58,169.23h0s0,.04.01.06h0s-.01-.04-.02-.06Z"/>
    <polygon class="cls-4" points="365.45 173.15 366.2 173.83 366.2 173.83 365.45 173.15"/>
    <polygon class="cls-4" points="369.8 178.25 369.77 178.18 369.8 178.25 369.8 178.25"/>
  </g>
  <g>
    <path class="cls-4" d="M60.85,356.69v-12.02c0-.4-.05-.64-.17-1.03l-6.15-20.13h4.91c1.46,5.65,3.18,12.24,3.71,15.61h.05c.67-3.62,2.38-10.14,3.73-15.61h4.72l-6.25,20.48c-.05.23-.1.54-.1,1.15v11.55h-4.45Z"/>
    <path class="cls-4" d="M85.39,341.15h-7.36v11.45h8.42l-.58,4.09h-12.3v-33.18h12.22v4.13h-7.77v9.42h7.36v4.09Z"/>
    <path class="cls-4" d="M94.09,347.09l-1.34,9.6h-4.52l5.39-33.18h6.3l5.6,33.18h-4.65l-1.47-9.6h-5.31ZM98.86,343c-.93-6.34-1.7-11.81-2.05-15.3h-.17c-.13,2.66-1.21,9.92-1.97,15.3h4.19Z"/>
    <path class="cls-4" d="M112.58,341.58v15.11h-4.45v-33.18h6.54c5.02,0,7.78,2.08,7.78,7.84v1.37c0,4.85-1.88,6.38-3.38,6.95,2.01.85,3.06,2.33,3.06,6.8,0,2.81-.05,8.17.31,10.21h-4.31c-.43-2.03-.35-7.53-.35-9.91,0-4.15-.56-5.2-3.66-5.2h-1.55ZM112.58,337.87h1.59c2.89,0,3.82-1.36,3.82-4.94v-1.28c0-2.76-.66-4.43-3.73-4.43h-1.68v10.65Z"/>
    <path class="cls-4" d="M129.69,347.1v2c0,2.75.88,4.24,2.99,4.24s2.85-1.82,2.85-4.6c0-3.7-.8-4.98-4.34-7.75-3.56-2.8-5.42-4.55-5.42-9.45,0-4.3,1.3-8.55,6.96-8.54,5.63.01,6.72,3.93,6.72,7.78v1.67h-4.41v-1.55c0-2.5-.45-4.06-2.39-4.06s-2.42,1.68-2.42,4.05c0,2.66.52,3.81,3.49,6.02,4.81,3.59,6.31,5.64,6.31,11.18,0,4.69-1.52,9.06-7.46,9.06s-7.31-3.74-7.31-8.11v-1.94h4.45Z"/>
    <path class="cls-4" d="M164.66,332.04v16.01c0,6.14-2.57,9.11-7.91,9.11s-7.48-3.16-7.48-9.04v-16.1c0-6.05,2.93-8.98,7.77-8.98s7.62,3.09,7.62,9ZM153.8,331.68v16.91c0,3.17,1.15,4.54,3.15,4.54,2.14,0,3.17-1.31,3.17-4.65v-16.82c0-3.01-.98-4.56-3.19-4.56-2.07,0-3.14,1.43-3.14,4.58Z"/>
    <path class="cls-4" d="M168.66,323.51h12.35v4.13h-7.9v9.6h7.49v4.13h-7.49v15.33h-4.45v-33.18Z"/>
    <path class="cls-4" d="M190.46,323.51h4.45v29.19h8.34l-.42,3.99h-12.38v-33.18Z"/>
    <path class="cls-4" d="M217.18,341.15h-7.36v11.45h8.42l-.58,4.09h-12.3v-33.18h12.22v4.13h-7.77v9.42h7.36v4.09Z"/>
    <path class="cls-4" d="M225.89,347.09l-1.34,9.6h-4.52l5.39-33.18h6.3l5.6,33.18h-4.65l-1.47-9.6h-5.31ZM230.66,343c-.93-6.34-1.7-11.81-2.05-15.3h-.17c-.13,2.66-1.21,9.92-1.97,15.3h4.19Z"/>
    <path class="cls-4" d="M239.93,323.51h6.64c7.09,0,8.46,3.98,8.46,9.76v12.88c0,5.08-.83,10.54-8.56,10.54h-6.54v-33.18ZM244.37,352.88h1.79c3.64,0,4.33-2.21,4.33-6.03v-13.99c0-3.38-.6-5.5-4.34-5.5h-1.79v25.52Z"/>
    <path class="cls-4" d="M263.49,323.51v33.18h-4.45v-33.18h4.45Z"/>
    <path class="cls-4" d="M268.18,356.69v-33.18h5.2c1.52,5.3,5.75,22.1,6.19,24.26h.06c-.22-4.24-.25-8.91-.25-14.34v-9.92h4.14v33.18h-5.02c-1.35-4.92-5.91-23.14-6.36-25.06h-.05c.23,4.01.26,8.84.26,14.82v10.24h-4.17Z"/>
    <path class="cls-4" d="M302.46,356.69h-3.49c-.12-.57-.22-1.93-.25-2.65-.88,2.31-2.79,3.12-4.94,3.12-4.76,0-6.3-3.47-6.3-8.96v-16.01c0-5.43,2.15-9.14,7.55-9.14,6.47,0,7.34,4.69,7.34,8.52v.98h-4.45v-1.16c0-1.99-.26-4.29-2.9-4.29-2.05,0-3,1.36-3,4.48v17.03c0,2.91.8,4.6,2.89,4.6,2.57,0,3.1-2.26,3.1-6.01v-5.03h-3.23v-3.85h7.7v18.38Z"/>
    <path class="cls-4" d="M316.33,327.64h-5.34v-4.13h15.14v4.13h-5.35v29.05h-4.45v-29.05Z"/>
    <path class="cls-4" d="M328.47,323.51h4.45v13.37h6.1v-13.37h4.45v33.18h-4.45v-15.71h-6.1v15.71h-4.45v-33.18Z"/>
    <path class="cls-4" d="M359.9,341.15h-7.36v11.45h8.42l-.58,4.09h-12.3v-33.18h12.22v4.13h-7.77v9.42h7.36v4.09Z"/>
    <path class="cls-4" d="M373.16,356.69l-4.58-33.18h4.74c.87,7.54,2.16,19.79,2.43,25.62h.08c.64-6.31,2.39-18.1,3.4-25.62h4.4c1.05,7.68,2.78,18.66,3.35,25.41h.11c.38-6.14,1.69-17.65,2.57-25.41h4.51l-4.96,33.18h-4.63c-1-7.57-2.61-18.22-3.27-24.49h-.08c-.74,6.55-2.41,17.11-3.48,24.49h-4.6Z"/>
    <path class="cls-4" d="M399.85,347.09l-1.34,9.6h-4.52l5.39-33.18h6.3l5.6,33.18h-4.65l-1.47-9.6h-5.31ZM404.61,343c-.93-6.34-1.7-11.81-2.05-15.3h-.17c-.13,2.66-1.21,9.92-1.97,15.3h4.19Z"/>
    <path class="cls-4" d="M415.71,356.69v-12.02c0-.4-.05-.64-.17-1.03l-6.15-20.13h4.91c1.46,5.65,3.18,12.24,3.71,15.61h.05c.67-3.62,2.38-10.14,3.73-15.61h4.72l-6.25,20.48c-.05.23-.1.54-.1,1.15v11.55h-4.45Z"/>
    <path class="cls-4" d="M425.21,356.69v-7.14h4.45v7.14h-4.45Z"/>
    <path class="cls-4" d="M433.06,356.69v-7.14h4.45v7.14h-4.45Z"/>
    <path class="cls-4" d="M440.91,356.69v-7.14h4.45v7.14h-4.45Z"/>
    <path class="cls-4" d="M465.83,330.81c0,4.62-3.63,8.25-8.34,8.25s-8.39-3.63-8.39-8.25,3.73-8.15,8.39-8.15,8.34,3.63,8.34,8.15ZM451.18,330.81c0,3.63,2.68,6.51,6.36,6.51s6.21-2.88,6.21-6.46-2.63-6.56-6.26-6.56-6.31,2.93-6.31,6.51ZM456.19,335.08h-1.89v-8.15c.75-.15,1.79-.25,3.13-.25,1.54,0,2.24.25,2.83.6.45.35.79.99.79,1.79,0,.89-.7,1.59-1.69,1.89v.1c.79.3,1.24.89,1.49,1.99.25,1.24.4,1.74.6,2.04h-2.04c-.25-.3-.4-1.04-.65-1.99-.15-.89-.65-1.29-1.69-1.29h-.89v3.28ZM456.24,330.47h.89c1.04,0,1.89-.35,1.89-1.19,0-.75-.55-1.24-1.74-1.24-.5,0-.84.05-1.04.1v2.33Z"/>
  </g>
</svg>