<svg xmlns="http://www.w3.org/2000/svg" version="1.2" viewBox="0 0 200 200" xml:space="preserve" baseProfile="tiny-ps"><title>California Association of Realtors, Inc.</title>
  
  <defs id="defs12"/>
  <g id="g12" transform="matrix(1.7728194,0,0,1.7728194,32.544222,10.029415)">
    <polygon fill="#000033" points="20.8,26.1 28,26.1 22.8,23.7 " id="polygon1"/>
    <polygon fill="#000033" points="19.4,35.7 19.4,34.5 20,32.8 20.3,31.3 20.7,29.3 20.4,27.5 20.4,26.6 12.8,35.6 20.6,37.3 20.4,37.1 " id="polygon2"/>
    <polygon fill="#000033" points="41.5,69.1 41.3,69 21.8,76.8 31.1,88 50.3,75.1 50.1,74.7 48.8,73.6 47.5,72.6 46.6,72.3 46.3,72.5 45.7,72.4 46,71.2 45.6,70.8 44.8,70.7 43.5,70.7 42.4,70 " id="polygon3"/>
    <polygon fill="#000033" points="30.3,58.4 30.2,57.9 30.2,57.9 30.2,58.1 8.1,60.5 19.2,73.7 36.7,68 36.4,67.9 36,67.1 36,66 36.2,65.2 35.7,64.7 34.9,64.4 34.8,63.2 34.2,62.6 33.1,61.6 32.4,60.8 31.5,59.5 " id="polygon4"/>
    <polygon fill="#000033" points="42.5,101.5 62.3,77.6 51.4,78.7 51.4,76.8 51.3,76.6 33.2,90.4 " id="polygon5"/>
    <polygon fill="#000033" points="27.2,48.8 26.9,49.6 25.8,49.3 25.4,48.2 25.4,47.3 24.7,46.9 23.9,45.8 23.2,44.6 22.3,43.5 22.1,42.2 22,41.7 9.3,39.7 0,50.8 4.8,56.5 30.4,55.3 30.4,55.2 29.7,54.9 28.6,54.1 28,53 28,51.9 27.7,51.5 27.7,50.3 28.2,50.2 29,51.3 29.2,50.3 28.8,48.9 27.7,48.3 " id="polygon6"/>
    <path fill="#000033" d="m 72.6,49.4 v 0 l -32.8,-5 11,10 21.8,-1 c -0.1,-0.6 -0.1,-1.2 -0.1,-1.8 0,-0.8 0,-1.5 0.1,-2.2 z" id="path6"/>
    <path fill="#000033" d="m 39,31 v 10.6 l 33.6,7.7 c 0,-0.1 0,-0.2 0.1,-0.3 0.1,-0.9 0.3,-1.9 0.6,-2.7 h 0.1 v 0 z" id="path7"/>
    <path fill="#000033" d="M 76,40.4 C 63.7,25.5 42.7,0 42.7,0 L 37,6.8 74.7,42.6 v 0 c 0.4,-0.8 0.9,-1.5 1.4,-2.1 z" id="path8"/>
    <path fill="#000033" d="M 34.6,9.7 26,20 37,26 v 0 h 2.1 v 1.2 l 34.3,18.9 c 0.3,-1.2 0.8,-2.3 1.3,-3.3 z" id="path9"/>
    <path fill="#000033" d="m 72.6,53.8 c 0,-0.1 0,-0.2 0,-0.2 v -0.1 0 0 l -20.4,2.2 v 0 l 5.9,5.4 15,-4.8 v 0.1 l -14,5.6 3.7,3.4 0.4,1.2 10.9,-7.5 c 0,0.1 0,0.1 0.1,0.2 l -10.7,8.1 0.6,1.1 0.7,0.4 0.2,0.8 -0.5,0.5 -0.6,0.7 -0.5,0.5 v 0.9 l -0.2,1.1 -0.9,0.7 0.1,1 0.3,0.7 0.5,0.3 0.1,0.3 12.2,-14.7 C 74,59.5 73,56.7 72.6,53.8 Z" id="path10"/>
    <path fill="#ffffff" stroke="#ffffff" stroke-width="0.25" d="M 73.1,56.3 Z" id="path11"/>
    <path fill="#ffffff" stroke="#ffffff" stroke-width="0.25" d="M 63.5,67.4 Z" id="path12"/>
  </g>
</svg>